<svg xmlns="http://www.w3.org/2000/svg" viewBox="0 0 1400 900" role="img" aria-labelledby="title desc">
  <title id="title">ALA one-shot and interactive execution flows</title>
  <desc id="desc">One-shot execution creates a new ALA runtime and temporary workspace for one request and removes them afterward, so no conversation continues into the next process. Interactive execution retains one runtime, workspace, selected coding backend and native continuation until the user exits.</desc>
  <defs><marker id="arrow" markerWidth="10" markerHeight="10" refX="8" refY="3" orient="auto"><path d="M0,0 L0,6 L9,3 z" fill="#315e89"/></marker><style>.lane{fill:#f4f8fc;stroke:#315e89;stroke-width:2}.step{fill:#ffffff;stroke:#315e89;stroke-width:1.8}.agent{fill:#f0f7ef;stroke:#3e7448;stroke-width:1.8}.state{fill:#f7f1df;stroke:#8a6a24;stroke-width:1.8}.end{fill:#f4f4f4;stroke:#687786;stroke-width:1.5}.label{font:600 20px system-ui,sans-serif;fill:#17324d}.title{font:600 16px system-ui,sans-serif;fill:#17324d}.text{font:14px system-ui,sans-serif;fill:#2c3e50}.small{font:13px system-ui,sans-serif;fill:#526273}.arrow{fill:none;stroke:#315e89;stroke-width:2.2;marker-end:url(#arrow)}.loop{fill:none;stroke:#8a6a24;stroke-width:2.2;stroke-dasharray:7 5;marker-end:url(#arrow)}</style></defs>
  <rect class="lane" x="35" y="45" width="640" height="810" rx="18"/><text class="label" x="355" y="82" text-anchor="middle">One-shot execution</text><text class="small" x="355" y="107" text-anchor="middle">One operating-system process handles exactly one composed request.</text>
  <rect class="step" x="105" y="135" width="500" height="80" rx="10"/><text class="title" x="355" y="166" text-anchor="middle">1. Start ALA and load current state</text><text class="text" x="355" y="192" text-anchor="middle">Parse input, load config and repositories, detect available backends.</text>
  <rect class="step" x="105" y="250" width="500" height="80" rx="10"/><text class="title" x="355" y="281" text-anchor="middle">2. Build runtime and route the request</text><text class="text" x="355" y="307" text-anchor="middle">Use direct MainAgent execution or select the coding-agent path.</text>
  <rect class="agent" x="105" y="365" width="500" height="120" rx="10"/><text class="title" x="355" y="396" text-anchor="middle">3. Coding-agent path creates a fresh workspace</text><text class="text" x="355" y="423" text-anchor="middle">Bind it at /workspace and mount current task skills and folders.</text><text class="text" x="355" y="448" text-anchor="middle">Run one detected backend inside a new Bubblewrap child process.</text><text class="small" x="355" y="471" text-anchor="middle">The direct model path skips this workspace.</text>
  <rect class="step" x="105" y="520" width="500" height="80" rx="10"/><text class="title" x="355" y="551" text-anchor="middle">4. Normalize and deliver the result</text><text class="text" x="355" y="577" text-anchor="middle">Result uses stdout or the selected file; diagnostics remain separate.</text>
  <rect class="end" x="105" y="635" width="500" height="100" rx="10"/><text class="title" x="355" y="667" text-anchor="middle">5. Close runtime and delete temporary workspace</text><text class="text" x="355" y="695" text-anchor="middle">The process exits after this request.</text><text class="text" x="355" y="718" text-anchor="middle">Native continuation and conversation are not reused by the next process.</text>
  <rect class="state" x="105" y="770" width="500" height="58" rx="10"/><text class="small" x="355" y="795" text-anchor="middle">A later one-shot invocation starts again from current config, repositories</text><text class="small" x="355" y="816" text-anchor="middle">and explicitly mounted persistent folders.</text>
  <path class="arrow" d="M355 215 V250"/><path class="arrow" d="M355 330 V365"/><path class="arrow" d="M355 485 V520"/><path class="arrow" d="M355 600 V635"/><path class="arrow" d="M355 735 V770"/>
  <rect class="lane" x="725" y="45" width="640" height="810" rx="18"/><text class="label" x="1045" y="82" text-anchor="middle">Interactive execution</text><text class="small" x="1045" y="107" text-anchor="middle">One ALA process retains runtime state across multiple terminal prompts.</text>
  <rect class="step" x="795" y="135" width="500" height="80" rx="10"/><text class="title" x="1045" y="166" text-anchor="middle">1. Start ALA and build one runtime</text><text class="text" x="1045" y="192" text-anchor="middle">Load initial config, repositories, backend discovery and slash commands.</text>
  <rect class="step" x="795" y="250" width="500" height="80" rx="10"/><text class="title" x="1045" y="281" text-anchor="middle">2. Read a prompt or handle a local command</text><text class="text" x="1045" y="307" text-anchor="middle">Folder, repository, model and web-search changes affect later turns.</text>
  <rect class="agent" x="795" y="365" width="500" height="125" rx="10"/><text class="title" x="1045" y="396" text-anchor="middle">3. Execute within the retained runtime</text><text class="text" x="1045" y="423" text-anchor="middle">The coding workspace is created lazily and then reused.</text><text class="text" x="1045" y="448" text-anchor="middle">The first coding backend is pinned; its native continuation is retained.</text><text class="small" x="1045" y="473" text-anchor="middle">Each backend turn still starts a sandboxed native child process.</text>
  <rect class="step" x="795" y="525" width="500" height="80" rx="10"/><text class="title" x="1045" y="556" text-anchor="middle">4. Return result and wait for the next line</text><text class="text" x="1045" y="582" text-anchor="middle">The ALA process, MainAgent and session workspace remain active.</text>
  <rect class="state" x="795" y="640" width="500" height="72" rx="10"/><text class="title" x="1045" y="669" text-anchor="middle">Next prompt</text><text class="small" x="1045" y="694" text-anchor="middle">Reuse conversation, pinned backend, continuation and workspace files.</text>
  <rect class="end" x="795" y="770" width="500" height="58" rx="10"/><text class="title" x="1045" y="795" text-anchor="middle">/quit or process end: close runtime and remove workspace</text>
  <path class="arrow" d="M1045 215 V250"/><path class="arrow" d="M1045 330 V365"/><path class="arrow" d="M1045 490 V525"/><path class="arrow" d="M1045 605 V640"/><path class="loop" d="M795 676 H755 V290 H795"/><path class="arrow" d="M1045 712 V770"/>
</svg>
